HIERARCHY
ROOT Hips
{
	OFFSET 0.000000 35.082581 0.000000
	CHANNELS 6 Xposition Yposition Zposition Xrotation Yrotation Zrotation 
	JOINT Spine
	{
		OFFSET 0.000000 6.876099 0.125700
		CHANNELS 3 Xrotation Yrotation Zrotation
		JOINT Spine1
		{
			OFFSET 0.000000 5.730043 0.104720
			CHANNELS 3 Xrotation Yrotation Zrotation
			JOINT Spine1_split
			{
				OFFSET 0.000000 5.730043 0.104720
				CHANNELS 3 Xrotation Yrotation Zrotation
				JOINT Spine2
				{
					OFFSET 0.000000 5.730043 0.104720
					CHANNELS 3 Xrotation Yrotation Zrotation
					JOINT Neck
					{
						OFFSET 0.000000 10.314075 0.188496
						CHANNELS 3 Xrotation Yrotation Zrotation
						JOINT Head
						{
							OFFSET 0.000000 7.643700 -2.377400
							CHANNELS 3 Xrotation Yrotation Zrotation
							JOINT HeadTop_End
							{
								OFFSET 0.000000 43.788605 -13.619600
								CHANNELS 3 Xrotation Yrotation Zrotation
								End Site
								{
									OFFSET 0.000000 0.000000 0.000000
								}
							}
						}
					}
					JOINT LeftShoulder
					{
						OFFSET 2.196100 4.412489 0.087492
						CHANNELS 3 Xrotation Yrotation Zrotation
						JOINT LeftShoulder_split
						{
							OFFSET 2.196100 4.412489 0.087492
							CHANNELS 3 Xrotation Yrotation Zrotation
							JOINT LeftArm
							{
								OFFSET 8.771219 -2.981674 -0.026999
								CHANNELS 3 Xrotation Yrotation Zrotation
								JOINT LeftForeArm
								{
									OFFSET 8.512804 0.000000 -0.000000
									CHANNELS 3 Xrotation Yrotation Zrotation
									JOINT LeftHand
									{
										OFFSET 18.484802 0.000000 -0.000000
										CHANNELS 3 Xrotation Yrotation Zrotation
										JOINT LeftHandThumb1
										{
											OFFSET 2.499420 -1.158070 2.653252
											CHANNELS 3 Xrotation Yrotation Zrotation
											JOINT LeftHandThumb2
											{
												OFFSET 2.370079 -1.368366 1.368366
												CHANNELS 3 Xrotation Yrotation Zrotation
												JOINT LeftHandThumb3
												{
													OFFSET 2.676727 -1.545410 1.545409
													CHANNELS 3 Xrotation Yrotation Zrotation
													JOINT LeftHandThumb4
													{
														OFFSET 1.692226 -0.977005 0.977007
														CHANNELS 3 Xrotation Yrotation Zrotation
														End Site
														{
															OFFSET 0.000000 0.000000 0.000000
														}
													}
												}
											}
										}
										JOINT LeftHandIndex1
										{
											OFFSET 7.924831 -0.457527 2.345128
											CHANNELS 3 Xrotation Yrotation Zrotation
											JOINT LeftHandIndex2
											{
												OFFSET 3.643303 0.000000 0.000000
												CHANNELS 3 Xrotation Yrotation Zrotation
												JOINT LeftHandIndex3
												{
													OFFSET 3.810799 0.000000 0.000000
													CHANNELS 3 Xrotation Yrotation Zrotation
													JOINT LeftHandIndex4
													{
														OFFSET 2.403702 0.000000 0.000000
														CHANNELS 3 Xrotation Yrotation Zrotation
														End Site
														{
															OFFSET 0.000000 0.000000 0.000000
														}
													}
												}
											}
										}
										JOINT LeftHandMiddle1
										{
											OFFSET 8.563995 0.000000 -0.000000
											CHANNELS 3 Xrotation Yrotation Zrotation
											JOINT LeftHandMiddle2
											{
												OFFSET 3.861618 0.000000 0.000000
												CHANNELS 3 Xrotation Yrotation Zrotation
												JOINT LeftHandMiddle3
												{
													OFFSET 3.701603 0.000000 0.000000
													CHANNELS 3 Xrotation Yrotation Zrotation
													JOINT LeftHandMiddle4
													{
														OFFSET 2.322544 0.000000 0.000000
														CHANNELS 3 Xrotation Yrotation Zrotation
														End Site
														{
															OFFSET 0.000000 0.000000 0.000000
														}
													}
												}
											}
										}
										JOINT LeftHandRing1
										{
											OFFSET 8.426460 -0.424637 -3.286992
											CHANNELS 3 Xrotation Yrotation Zrotation
											JOINT LeftHandRing2
											{
												OFFSET 3.126408 0.000000 0.000000
												CHANNELS 3 Xrotation Yrotation Zrotation
												JOINT LeftHandRing3
												{
													OFFSET 3.085026 0.000000 0.000000
													CHANNELS 3 Xrotation Yrotation Zrotation
													JOINT LeftHandRing4
													{
														OFFSET 1.644005 0.000000 0.000000
														CHANNELS 3 Xrotation Yrotation Zrotation
														End Site
														{
															OFFSET 0.000000 0.000000 0.000000
														}
													}
												}
											}
										}
									}
								}
							}
						}
					}
					JOINT RightShoulder
					{
						OFFSET -2.196100 4.412496 0.070690
						CHANNELS 3 Xrotation Yrotation Zrotation
						JOINT RightShoulder_split
						{
							OFFSET -2.196100 4.412496 0.070690
							CHANNELS 3 Xrotation Yrotation Zrotation
							JOINT RightArm
							{
								OFFSET -8.771282 -2.981682 -0.094208
								CHANNELS 3 Xrotation Yrotation Zrotation
								JOINT RightForeArm
								{
									OFFSET -8.494598 0.000000 0.000000
									CHANNELS 3 Xrotation Yrotation Zrotation
									JOINT RightHand
									{
										OFFSET -18.483803 0.000000 0.000001
										CHANNELS 3 Xrotation Yrotation Zrotation
										JOINT RightHandThumb1
										{
											OFFSET -2.527351 -1.008072 2.575253
											CHANNELS 3 Xrotation Yrotation Zrotation
											JOINT RightHandThumb2
											{
												OFFSET -2.321518 -1.340328 1.340329
												CHANNELS 3 Xrotation Yrotation Zrotation
												JOINT RightHandThumb3
												{
													OFFSET -2.657753 -1.534454 1.534455
													CHANNELS 3 Xrotation Yrotation Zrotation
													JOINT RightHandThumb4
													{
														OFFSET -1.807510 -1.043568 1.043567
														CHANNELS 3 Xrotation Yrotation Zrotation
														End Site
														{
															OFFSET 0.000000 0.000000 0.000000
														}
													}
												}
											}
										}
										JOINT RightHandIndex1
										{
											OFFSET -8.811420 0.015533 2.887987
											CHANNELS 3 Xrotation Yrotation Zrotation
											JOINT RightHandIndex2
											{
												OFFSET -3.537502 0.000000 0.000000
												CHANNELS 3 Xrotation Yrotation Zrotation
												JOINT RightHandIndex3
												{
													OFFSET -3.356201 0.000000 0.000000
													CHANNELS 3 Xrotation Yrotation Zrotation
													JOINT RightHandIndex4
													{
														OFFSET -1.933098 0.000000 0.000000
														CHANNELS 3 Xrotation Yrotation Zrotation
														End Site
														{
															OFFSET 0.000000 0.000000 0.000000
														}
													}
												}
											}
										}
										JOINT RightHandMiddle1
										{
											OFFSET -8.178135 0.000000 0.000000
											CHANNELS 3 Xrotation Yrotation Zrotation
											JOINT RightHandMiddle2
											{
												OFFSET -3.901302 0.000000 0.000000
												CHANNELS 3 Xrotation Yrotation Zrotation
												JOINT RightHandMiddle3
												{
													OFFSET -3.909599 0.000000 0.000000
													CHANNELS 3 Xrotation Yrotation Zrotation
													JOINT RightHandMiddle4
													{
														OFFSET -2.376003 0.000000 0.000000
														CHANNELS 3 Xrotation Yrotation Zrotation
														End Site
														{
															OFFSET 0.000000 0.000000 0.000000
														}
													}
												}
											}
										}
										JOINT RightHandRing1
										{
											OFFSET -7.559013 0.014137 -2.865403
											CHANNELS 3 Xrotation Yrotation Zrotation
											JOINT RightHandRing2
											{
												OFFSET -3.449306 0.000000 0.000000
												CHANNELS 3 Xrotation Yrotation Zrotation
												JOINT RightHandRing3
												{
													OFFSET -3.362106 0.000000 0.000000
													CHANNELS 3 Xrotation Yrotation Zrotation
													JOINT RightHandRing4
													{
														OFFSET -2.076401 0.000000 0.000000
														CHANNELS 3 Xrotation Yrotation Zrotation
														End Site
														{
															OFFSET 0.000000 0.000000 0.000000
														}
													}
												}
											}
										}
									}
								}
							}
						}
					}
				}
			}
		}
	}
	JOINT LeftUpLeg
	{
		OFFSET 10.205400 -3.823500 0.155100
		CHANNELS 3 Xrotation Yrotation Zrotation
		JOINT LeftLeg
		{
			OFFSET 0.708757 -12.982077 0.567790
			CHANNELS 3 Xrotation Yrotation Zrotation
			JOINT LeftFoot
			{
				OFFSET -0.708756 -10.717838 -2.184338
				CHANNELS 3 Xrotation Yrotation Zrotation
				JOINT LeftToeBase
				{
					OFFSET 0.108149 -7.191104 7.560241
					CHANNELS 3 Xrotation Yrotation Zrotation
					JOINT LeftToe_End
					{
						OFFSET 0.070230 0.081724 4.490308
						CHANNELS 3 Xrotation Yrotation Zrotation
						End Site
						{
							OFFSET 0.000000 0.000000 0.000000
						}
					}
				}
			}
		}
	}
	JOINT RightUpLeg
	{
		OFFSET -10.205400 -3.823500 0.005500
		CHANNELS 3 Xrotation Yrotation Zrotation
		JOINT RightLeg
		{
			OFFSET -0.708756 -12.982134 0.610632
			CHANNELS 3 Xrotation Yrotation Zrotation
			JOINT RightFoot
			{
				OFFSET 0.708754 -10.717769 -1.945823
				CHANNELS 3 Xrotation Yrotation Zrotation
				JOINT RightToeBase
				{
					OFFSET -0.108140 -7.191069 7.372968
					CHANNELS 3 Xrotation Yrotation Zrotation
					JOINT RightToe_End
					{
						OFFSET -0.070227 0.081735 4.479403
						CHANNELS 3 Xrotation Yrotation Zrotation
						End Site
						{
							OFFSET 0.000000 0.000000 0.000000
						}
					}
				}
			}
		}
	}
}
MOTION
Frames: 6
Frame Time: 0.016667
-4.755834 23.214832 -0.896500 -2.895484 4.229605 0.180857 8.950210 0.708402 -1.628851 3.966861 0.230935 -3.978306 0.000000 0.000000 0.000000 3.989351 0.231039 -3.977844 5.038291 -8.338513 11.033142 -0.460170 -3.911048 -10.648856 0.000001 -0.000001 -0.000001 -8.174006 -31.527989 -8.252492 0.000000 0.000000 0.000000 -31.588559 -14.766828 -24.997727 -124.594521 -59.639709 -127.258650 -8.365621 -5.660508 17.684046 15.614806 18.236684 11.488259 11.421614 30.331333 -11.339200 2.081489 57.074276 29.941695 -0.000002 -0.000000 -0.000002 19.961291 12.194201 -48.814406 -0.280075 1.062287 -128.835181 -0.439154 0.794153 -96.525879 0.000000 0.000001 0.000001 7.703390 10.532964 -62.910892 0.990456 -0.061680 -121.377338 0.940082 -0.338425 -98.726833 0.000001 0.000002 -0.000001 0.948585 15.112215 -68.414317 0.879501 -0.210874 -117.521191 0.879925 0.333458 -117.027587 -0.000003 0.000000 -0.000000 -8.947935 32.923243 10.353829 0.000000 0.000000 0.000000 -34.168414 8.238695 31.408847 50.102853 118.312291 -44.867550 -7.430172 8.835785 -25.387550 17.261059 -16.812979 -12.690462 10.409556 -24.931136 14.714517 -0.718629 -60.920042 -34.719136 0.000004 0.000002 0.000001 19.952634 -0.387266 46.095929 -0.057014 -1.141804 137.151537 -0.365263 -0.886869 100.484561 -0.000001 0.000001 -0.000000 6.186498 -2.518718 61.008015 0.941203 0.201328 126.871392 0.934521 0.366321 97.857220 0.000001 0.000002 -0.000001 0.195746 -7.578808 62.006213 0.865296 0.303849 119.921470 0.873722 -0.346662 114.873195 0.000002 0.000001 -0.000002 -79.638886 -8.738401 3.317108 58.091326 -17.263831 -8.648651 20.213783 -5.420550 -7.780686 -0.327621 1.263327 0.837203 0.000000 -0.000001 0.000000 18.878855 -4.312061 -6.626502 80.599217 -2.311908 -5.341122 -68.158601 -10.054215 15.822562 -32.416426 -0.294030 -1.847583 0.000000 -0.000000 -0.000000 
-4.830987 23.903767 -0.755797 -0.953294 5.735490 0.396054 8.253985 0.639423 -1.778669 2.568486 -0.078455 -4.312727 0.000000 0.000000 0.000000 2.590945 -0.078387 -4.312239 0.090889 -9.587589 9.553649 -0.716504 -4.945424 -10.676960 0.000000 0.000000 -0.000000 -8.485041 -28.820482 -9.252591 0.000000 0.000000 0.000000 -25.663304 -15.710624 -18.176242 -134.370339 -56.428964 -136.822623 -8.621287 -3.463227 20.162329 14.821195 17.379374 11.215568 10.269860 28.734862 -10.694115 3.816895 51.183477 25.752776 -0.000001 0.000003 -0.000005 16.649744 9.371639 -44.593933 -0.351028 0.994041 -120.047350 -0.450118 0.742119 -90.659908 0.000001 0.000001 -0.000001 6.076238 7.776716 -58.086852 1.006504 0.042503 -113.465677 0.918456 -0.280439 -93.415022 0.000003 0.000000 0.000001 0.133067 12.601317 -64.387210 0.867695 -0.128584 -110.199775 0.875311 0.402515 -109.997198 -0.000003 -0.000002 0.000001 -8.020580 29.104105 7.655805 0.000000 0.000000 0.000000 -24.846589 11.304213 29.134568 32.701942 121.145016 -30.427393 -8.088110 5.625860 -27.490547 15.061790 -14.238114 -12.274956 10.652980 -26.601748 13.514515 0.666366 -59.059526 -32.370162 0.000003 0.000003 -0.000000 19.237428 0.147146 44.669970 -0.156356 -1.095403 130.776006 -0.382740 -0.820918 96.368922 -0.000001 0.000001 0.000004 5.981525 -1.717662 59.670568 0.967289 0.104968 121.723670 0.918757 0.315216 94.635939 0.000004 -0.000001 0.000002 0.026747 -7.126140 61.895352 0.865376 0.227849 115.797634 0.865978 -0.385786 111.152217 0.000000 0.000001 0.000005 -78.273811 -8.328243 1.688835 52.988454 -16.986102 -7.766515 21.754788 -5.373259 -8.749016 -0.327587 1.261703 0.837189 0.000000 0.000000 0.000000 17.818975 -5.119626 -5.172460 75.863662 -4.115147 -5.753482 -65.762550 -9.460381 15.870013 -30.860642 -0.234349 -1.804177 0.000000 0.000001 -0.000000 
-4.900904 24.647961 -0.584217 1.157959 7.151516 0.520836 7.506331 0.525380 -1.901799 1.064138 -0.427327 -4.603814 0.000000 0.000000 0.000000 1.086614 -0.427256 -4.603350 -5.694804 -10.493379 7.608347 -0.030810 -6.025158 -10.033726 -0.000001 0.000000 0.000000 -8.676814 -25.765729 -10.075472 0.000000 0.000000 0.000000 -18.326613 -15.006481 -10.670911 -143.139988 -54.309570 -144.303852 -8.338683 -4.453239 22.583583 13.542262 15.852876 10.916875 8.824512 26.648352 -9.992333 4.898070 43.714703 21.422472 -0.000005 -0.000001 -0.000002 13.337082 4.780005 -39.370761 -0.419291 0.893000 -109.137735 -0.454498 0.674973 -83.429183 -0.000001 0.000001 0.000000 4.808479 3.926235 -52.134311 1.003539 0.176453 -103.588821 0.884261 -0.208916 -86.733062 0.000002 -0.000000 -0.000000 -0.215168 9.437559 -59.277914 0.838034 -0.028818 -100.964587 0.855859 0.491798 -101.072279 -0.000002 0.000000 0.000000 -7.681950 25.388564 6.444243 0.000000 0.000000 0.000000 -12.655753 14.347779 25.486342 5.490591 121.793625 -9.171609 -8.726470 2.964754 -28.818665 11.624265 -10.440123 -11.249740 11.086812 -29.256207 11.708963 2.424965 -56.368161 -29.269188 -0.000000 -0.000007 -0.000001 18.267577 0.888053 42.688512 -0.289858 -1.006601 121.263370 -0.397279 -0.723557 90.136067 -0.000001 0.000000 0.000001 5.769982 -0.545416 57.834866 0.983947 -0.035236 114.143273 0.887856 0.243709 89.818156 -0.000001 0.000000 0.000001 -0.199850 -6.375999 61.868858 0.850986 0.117628 109.628785 0.847159 -0.441564 105.483365 -0.000004 0.000001 -0.000003 -76.667992 -8.114137 0.053627 47.443843 -16.730682 -6.653702 23.348792 -5.332637 -9.856797 -0.327515 1.259964 0.837188 -0.000000 0.000001 0.000000 16.557294 -5.535089 -3.715369 71.001346 -5.952421 -6.230216 -62.791145 -8.892650 16.050717 -29.759261 -0.175344 -1.740626 0.000000 -0.000000 -0.000000 
-5.005649 25.921989 -0.304248 4.086028 8.818866 0.737429 6.663869 0.379281 -2.003014 -0.631358 -0.805343 -4.887746 0.000000 0.000000 0.000000 -0.608884 -0.805301 -4.887265 -14.077576 -10.176104 5.940329 3.281338 -6.836341 -9.520002 0.000000 -0.000000 -0.000001 -8.036801 -21.485210 -9.500187 0.000000 0.000000 0.000000 -14.726091 -11.896514 -5.740299 -146.957162 -62.475255 -145.446351 -7.887409 -6.581184 25.772387 11.852984 13.783155 10.547954 7.134277 24.125481 -9.310023 5.160879 34.926814 17.070579 -0.000002 -0.000002 -0.000004 10.702060 -1.002498 -33.147390 -0.468596 0.763137 -96.351983 -0.448518 0.595527 -74.891822 -0.000001 0.000001 -0.000000 4.375439 -0.409741 -44.950701 0.966624 0.328690 -91.921055 0.833314 -0.129177 -78.725990 0.000002 -0.000001 -0.000001 0.232648 6.121650 -52.931975 0.782599 0.078114 -89.957355 0.811978 0.593277 -90.465336 0.000001 0.000001 0.000001 -7.296007 21.402415 5.049862 0.000000 0.000000 0.000000 -4.773022 12.248335 21.979733 -14.800945 116.232471 8.083228 -8.901747 3.776059 -31.299581 4.230390 -1.918575 -6.476946 12.275587 -36.017910 7.415582 5.146852 -51.012716 -23.813383 -0.000003 -0.000004 -0.000002 16.370756 2.829279 38.403777 -0.505721 -0.751334 100.224789 -0.374727 -0.534454 76.581864 0.000000 0.000003 -0.000001 5.421994 2.068139 53.814388 0.933738 -0.307706 97.586963 0.796531 0.120389 79.643250 0.000000 -0.000002 0.000001 -0.820399 -4.841756 62.096972 0.758531 -0.091742 96.422641 0.788622 -0.533188 93.583222 -0.000000 0.000000 0.000001 -72.771028 -8.165684 -2.127003 37.714747 -16.669135 -4.652672 25.952656 -4.885330 -11.848785 -0.327484 1.258038 0.837198 -0.000000 -0.000001 0.000000 15.104958 -6.175628 -2.043436 62.594217 -8.298283 -7.178042 -57.270330 -7.844155 16.502444 -28.331223 -0.147232 -1.654281 -0.000001 0.000000 -0.000000 
-5.113389 27.160046 0.010419 6.240972 10.035028 0.940756 6.025818 0.356855 -2.057238 -1.909138 -0.850893 -5.060077 0.000000 0.000000 0.000000 -1.886657 -0.850850 -5.059593 -22.734688 -9.234639 4.477811 7.334332 -6.985442 -9.210165 -0.000000 0.000000 -0.000001 -7.298180 -17.415333 -8.034922 0.000000 0.000000 0.000000 -14.064200 -8.494676 -2.706175 -146.039977 -74.946245 -142.967908 -7.310166 -8.894768 29.046103 9.845156 11.305852 10.066949 5.274777 21.279697 -8.727055 4.590190 25.276821 12.706285 -0.000002 -0.000003 -0.000006 9.307014 -7.102831 -25.959328 -0.483390 0.618125 -82.175140 -0.428420 0.509531 -65.255942 -0.000003 0.000002 0.000001 5.043944 -4.417617 -36.552994 0.885467 0.477984 -78.862614 0.762986 -0.049862 -69.582866 -0.000004 0.000004 0.000001 1.619664 3.295827 -45.321280 0.697539 0.176602 -77.542946 0.736961 0.692835 -78.563397 0.000002 0.000001 -0.000001 -7.063736 17.810830 3.824964 0.000000 0.000000 0.000000 -0.653500 7.660499 19.416993 -39.660088 109.687879 33.038639 -8.721403 6.408967 -33.982602 -4.074351 5.658249 -0.221942 12.481054 -41.041084 2.813762 7.072004 -42.950033 -18.123975 -0.000001 0.000000 0.000003 14.404497 5.404240 33.012572 -0.579290 -0.409319 75.800408 -0.284483 -0.366601 60.427653 0.000000 0.000003 -0.000004 5.435012 5.123447 47.951616 0.767632 -0.537025 77.829145 0.661137 0.012780 66.828593 0.000001 -0.000000 -0.000000 -0.931436 -2.953519 60.313002 0.576729 -0.262044 80.137366 0.700121 -0.621481 78.506399 0.000001 0.000002 -0.000000 -67.659936 -8.656172 -3.697767 27.378381 -16.373376 -2.656075 28.830720 -4.935186 -13.633977 -0.327376 1.253821 0.837289 0.000000 -0.000002 -0.000000 14.854512 -7.043552 -0.717272 53.782183 -10.035662 -8.466992 -51.023098 -6.742907 17.233097 -27.791896 0.023423 -1.681084 0.000000 -0.000000 -0.000000 
-5.197953 28.343544 0.380116 7.631434 10.646345 0.948124 5.455094 0.466000 -2.037773 -3.041143 -0.526851 -5.046612 0.000000 0.000000 0.000000 -3.018653 -0.526802 -5.046137 -31.378138 -7.839146 3.194621 7.437475 -6.215825 -8.380753 -0.000001 -0.000000 0.000000 -6.651225 -13.502822 -6.091283 0.000000 0.000000 0.000000 -14.996705 -4.896495 -0.947554 -42.586451 -87.858697 -39.724974 -6.412354 -11.683229 32.354644 7.606321 8.543195 9.450065 3.340735 18.273249 -8.307521 3.258602 15.361106 8.307793 -0.000000 0.000001 -0.000000 9.385485 -12.532315 -17.943843 -0.456691 0.479161 -67.294739 -0.392053 0.424892 -54.877653 -0.000001 -0.000000 -0.000001 6.681309 -7.296587 -27.192436 0.761515 0.599165 -65.017848 0.674132 0.018773 -59.633425 0.000001 -0.000001 0.000000 3.760707 1.571952 -36.631449 0.586851 0.249964 -64.288841 0.631378 0.773185 -65.901886 -0.000000 0.000002 0.000001 -6.909949 14.522410 2.667802 0.000000 0.000000 0.000000 1.310035 1.516603 17.537405 -81.053821 106.434927 76.989196 -7.877156 10.600857 -37.032582 -9.477045 7.901181 -0.153651 10.407069 -38.024872 1.059094 7.212354 -33.175400 -13.741455 0.000001 -0.000000 -0.000000 13.011621 7.371714 28.563925 -0.503269 -0.207291 58.940359 -0.197696 -0.283839 48.298211 -0.000002 -0.000001 -0.000000 5.888718 7.219032 41.809784 0.608761 -0.631234 63.099958 0.542869 -0.048136 55.780878 -0.000001 0.000000 0.000001 0.410257 -1.543597 55.160908 0.420234 -0.320953 66.780078 0.609478 -0.688894 65.216135 0.000000 -0.000004 0.000001 -61.550755 -9.288679 -4.246049 16.716413 -15.903660 -0.914160 32.043085 -5.793517 -14.863479 -0.375863 1.248282 0.710734 -0.000000 -0.000001 0.000000 15.662288 -7.852838 0.722816 44.544568 -11.700356 -10.387400 -43.784043 -5.266142 18.609315 -28.359282 0.345172 -1.823221 -0.000000 0.000000 -0.000000 
